<?xml version="1.0" encoding="UTF-8"?>
<!DOCTYPE svg PUBLIC "-//W3C//DTD SVG 1.1//EN" "http://www.w3.org/Graphics/SVG/1.1/DTD/svg11.dtd">
<!-- Creator: CorelDRAW X8 -->
<svg xmlns="http://www.w3.org/2000/svg" xml:space="preserve" width="59.2666mm" height="59.2666mm" version="1.1" style="shape-rendering:geometricPrecision; text-rendering:geometricPrecision; image-rendering:optimizeQuality; fill-rule:evenodd; clip-rule:evenodd"
viewBox="0 0 5927 5927"
 xmlns:xlink="http://www.w3.org/1999/xlink">
 <defs>
  <style type="text/css">
   <![CDATA[
    .fil0 {fill:#A9ABAE}
    .fil3 {fill:#FEFEFE;fill-rule:nonzero}
    .fil1 {fill:#96989A;fill-rule:nonzero}
    .fil14 {fill:#96989A;fill-rule:nonzero}
    .fil15 {fill:#F0894B;fill-rule:nonzero}
    .fil18 {fill:#EA5069;fill-rule:nonzero}
    .fil16 {fill:#EEEFA5;fill-rule:nonzero}
    .fil13 {fill:#ECCF82;fill-rule:nonzero}
    .fil11 {fill:#E4B141;fill-rule:nonzero}
    .fil4 {fill:#D9D6D5;fill-rule:nonzero}
    .fil17 {fill:#D44655;fill-rule:nonzero}
    .fil10 {fill:#C3C4C4;fill-rule:nonzero}
    .fil19 {fill:#B84145;fill-rule:nonzero}
    .fil5 {fill:#B4B6B5;fill-rule:nonzero}
    .fil24 {fill:#AC404A;fill-rule:nonzero}
    .fil12 {fill:#88949A;fill-rule:nonzero}
    .fil23 {fill:#4BC2C8;fill-rule:nonzero}
    .fil20 {fill:#23BDBE;fill-rule:nonzero}
    .fil22 {fill:#20B1AF;fill-rule:nonzero}
    .fil2 {fill:#373A45;fill-rule:nonzero}
    .fil21 {fill:#353741;fill-rule:nonzero}
    .fil9 {fill:#34353E;fill-rule:nonzero}
    .fil6 {fill:#364755;fill-rule:nonzero}
    .fil7 {fill:url(#id0)}
    .fil8 {fill:url(#id1)}
   ]]>
  </style>
  <linearGradient id="id0" gradientUnits="userSpaceOnUse" x1="3579.62" y1="3267.55" x2="998.15" y2="1169.43">
   <stop offset="0" style="stop-opacity:1; stop-color:#3A4E5D"/>
   <stop offset="1" style="stop-opacity:1; stop-color:#3C606C"/>
  </linearGradient>
  <linearGradient id="id1" gradientUnits="userSpaceOnUse" xlink:href="#id0" x1="3307.81" y1="3601.96" x2="726.34" y2="1503.83">
  </linearGradient>
 </defs>
 <g id="Capa_x0020_1">
  <metadata id="CorelCorpID_0Corel-Layer"/>
  <circle class="fil0" cx="2930" cy="2964" r="2786"/>
  <path class="fil1" d="M2890 4424c-899,0 -1628,-53 -1628,-118 0,-65 729,-118 1628,-118 900,0 1629,53 1629,118 0,65 -729,118 -1629,118z"/>
  <path class="fil2" d="M4242 3510l-2806 0 0 -1491c0,-91 76,-167 167,-167l2483 0c86,0 156,71 156,156l0 1502z"/>
  <path class="fil3" d="M3990 3762l-2302 0c-139,0 -252,-113 -252,-252l2806 0c0,139 -113,252 -252,252z"/>
  <polygon class="fil4" points="2583,4186 3092,4186 3092,3762 2583,3762 "/>
  <polygon class="fil5" points="2583,3896 3092,3896 3092,3762 2583,3762 "/>
  <path class="fil3" d="M3426 4347l-1177 0 0 -28c0,-73 60,-133 133,-133l910 0c74,0 134,60 134,133l0 28z"/>
  <path class="fil6" d="M1598 1973c-24,0 -44,20 -44,44l0 32 1505 1301 258 0 -1593 -1377 -126 0z"/>
  <path class="fil6" d="M1554 2530l0 776c0,25 20,44 44,44l1243 0 -1287 -1112 0 292z"/>
  <path class="fil6" d="M4077 1973l-1726 0 1593 1377 133 0c24,0 44,-19 44,-44l0 -1289c0,-24 -20,-44 -44,-44z"/>
  <polygon class="fil7" points="3944,3350 3317,3350 1724,1973 2351,1973 "/>
  <polygon class="fil8" points="3059,3350 2841,3350 1554,2238 1554,2049 "/>
  <path class="fil5" d="M2907 3628c0,43 -36,79 -80,79 -43,0 -79,-36 -79,-79 0,-44 36,-80 79,-80 44,0 80,36 80,80z"/>
  <path class="fil3" d="M2608 2280c-174,357 -42,642 -42,642l-179 15 -116 11c-134,-567 405,-949 408,-952 -276,346 -228,688 -228,688 -3,-172 155,-400 157,-404z"/>
  <path class="fil4" d="M2387 2937l-116 11c-134,-567 405,-949 408,-952 -2,3 -355,391 -359,656 -3,154 35,240 67,285z"/>
  <path class="fil3" d="M3895 3079c-23,0 -45,4 -66,10 -34,-78 -100,-138 -183,-163 -1,0 -3,-1 -5,-1 -1,0 -2,-1 -3,-1 -24,-6 -49,-10 -75,-10 -15,0 -29,1 -43,3 -29,-59 -90,-100 -161,-100 -10,0 -19,1 -29,2 -45,8 -85,32 -112,67 -24,-6 -48,-9 -74,-9 -3,0 -6,0 -9,0 -57,-76 -147,-125 -249,-125 -71,0 -136,23 -188,63 -34,27 -63,60 -84,99 -19,-10 -40,-19 -61,-25 -12,-3 -24,-6 -37,-8 -16,-3 -32,-4 -49,-4 -36,0 -72,6 -104,18 -8,3 -16,6 -23,10 -21,-44 -52,-82 -90,-111 -12,-9 -24,-17 -36,-24l0 -1c0,-12 -1,-24 -2,-36 -2,-18 -6,-36 -11,-53l0 0 -1 -3 0 0c-25,-80 -81,-146 -154,-183 -30,-16 -63,-26 -98,-31l0 0c-14,-2 -29,-3 -43,-3 -28,0 -56,3 -82,11 -16,4 -33,10 -48,17 -29,-30 -67,-52 -109,-62 4,-7 9,-16 13,-24 2,-4 4,-8 5,-13 1,-2 3,-5 4,-8 1,-5 3,-9 4,-13 1,-3 2,-6 3,-9 7,-24 10,-50 10,-76 0,-31 -5,-60 -14,-88 -4,-14 -10,-27 -17,-40 0,-1 -1,-3 -2,-4l0 0 0 0 0 0c-1,-3 -3,-6 -5,-9 0,-1 -1,-3 -2,-4 -2,-3 -4,-6 -6,-9 -10,-15 -22,-30 -35,-43 -3,-3 -6,-7 -10,-10l0 0c16,-24 26,-53 26,-84 0,-6 -1,-13 -2,-19l-40 0c-24,0 -44,20 -44,44l0 1289c0,25 20,44 44,44l2479 0c21,0 40,-16 43,-36l0 -37c-14,-112 -110,-198 -225,-198z"/>
  <path class="fil4" d="M3895 3079c-23,0 -45,4 -66,10 -34,-78 -100,-138 -183,-163 85,27 82,131 3,169 -16,8 -35,13 -58,14 -134,6 -156,-44 -156,-44 0,0 -30,121 -164,136 -57,7 -105,-1 -142,-13l0 0c-65,-22 -100,-58 -100,-58 0,0 -50,49 -135,77 -48,16 -106,26 -172,17 -11,-1 -22,-3 -32,-5 -178,-32 -198,-126 -198,-126 -37,65 -114,109 -236,83 -123,-26 -142,-105 -142,-105 -54,87 -217,102 -265,0 -49,-103 0,-177 0,-177 -80,6 -161,-129 -105,-268 26,-65 73,-100 122,-118l1 0c85,-32 177,-15 179,-14 -30,-16 -63,-26 -98,-31l0 0c-14,-2 -29,-3 -43,-3 -28,0 -56,3 -82,11 -16,4 -33,10 -48,17 -29,-30 -67,-52 -109,-62 4,-7 9,-16 13,-24 2,-4 4,-8 5,-13 1,-2 3,-5 4,-8 1,-5 3,-9 4,-13 1,-3 2,-6 3,-9 7,-24 10,-50 10,-76 0,-31 -5,-60 -14,-88 -4,-14 -10,-27 -17,-40 0,-1 -1,-3 -2,-4l0 0 0 0 0 0c-1,-3 -3,-6 -5,-9 0,-1 -1,-3 -2,-4 -2,-3 -4,-6 -6,-9 -10,-15 -22,-30 -35,-43 -3,-3 -6,-7 -10,-10 16,-24 26,-53 26,-84 0,-6 -1,-13 -2,-19l-40 0c-24,0 -44,20 -44,44l0 1289c0,25 20,44 44,44l2479 0c21,0 40,-16 43,-36l0 -37c-14,-112 -110,-198 -225,-198z"/>
  <path class="fil4" d="M2041 2304c12,22 4,49 -18,61 -22,12 -49,4 -61,-18 -12,-22 -4,-49 18,-61 22,-12 49,-4 61,18z"/>
  <path class="fil3" d="M2039 2300c9,16 3,36 -13,44 -16,9 -36,3 -44,-13 -9,-16 -3,-36 13,-44 16,-9 36,-3 44,13z"/>
  <path class="fil4" d="M2894 2648c8,14 3,31 -11,39 -14,7 -31,2 -38,-12 -8,-13 -3,-31 11,-38 14,-8 31,-2 38,11z"/>
  <path class="fil3" d="M2893 2646c5,10 2,22 -8,28 -10,5 -23,1 -28,-9 -6,-9 -2,-22 8,-27 10,-6 23,-2 28,8z"/>
  <path class="fil4" d="M2347 2225c4,7 1,17 -6,21 -8,4 -17,1 -21,-6 -4,-8 -1,-17 6,-21 8,-4 17,-1 21,6z"/>
  <path class="fil3" d="M2346 2224c3,5 1,12 -4,15 -6,3 -12,1 -15,-5 -3,-5 -1,-12 4,-15 6,-3 12,-1 15,5z"/>
  <polygon class="fil3" points="2203,2610 2227,2365 2184,2479 2206,2080 2162,2557 2204,2472 "/>
  <polygon class="fil3" points="2573,2787 2750,2615 2644,2674 2919,2384 2577,2720 2663,2682 "/>
  <polygon class="fil9" points="3774,3510 3759,3510 3758,3436 3773,3435 "/>
  <polygon class="fil10" points="3499,3733 3499,3710 3762,3706 3759,3510 3774,3510 3777,3729 "/>
  <polygon class="fil11" points="3758,3429 3762,3706 3484,3710 3480,3433 "/>
  <polygon class="fil12" points="3596,3431 3595,3364 3641,3363 3642,3431 "/>
  <polygon class="fil13" points="3596,3458 3596,3431 3642,3431 3642,3458 "/>
  <polygon class="fil14" points="4210,5092 1456,5092 1820,4515 3847,4515 "/>
  <polygon class="fil4" points="4118,4914 1543,4914 1794,4515 3867,4515 "/>
  <polygon class="fil5" points="1543,5005 4118,5005 4118,4914 1543,4914 "/>
  <polygon class="fil3" points="1931,4585 1801,4585 1820,4545 1946,4545 "/>
  <polygon class="fil3" points="1948,4585 1964,4545 2090,4545 2078,4585 "/>
  <polygon class="fil3" points="2095,4585 2109,4545 2235,4545 2225,4585 "/>
  <polygon class="fil3" points="2242,4585 2254,4545 2380,4545 2373,4585 "/>
  <polygon class="fil3" points="2390,4585 2398,4545 2524,4545 2520,4585 "/>
  <polygon class="fil3" points="2537,4585 2543,4545 2669,4545 2667,4585 "/>
  <polygon class="fil3" points="2684,4585 2687,4545 2813,4545 2814,4585 "/>
  <polygon class="fil3" points="2829,4585 2830,4545 2956,4545 2959,4585 "/>
  <polygon class="fil3" points="2976,4585 2974,4545 3100,4545 3106,4585 "/>
  <polygon class="fil3" points="3123,4585 3119,4545 3245,4545 3253,4585 "/>
  <polygon class="fil3" points="3270,4585 3263,4545 3389,4545 3401,4585 "/>
  <polygon class="fil3" points="3418,4585 3408,4545 3534,4545 3548,4585 "/>
  <polygon class="fil3" points="3565,4585 3553,4545 3679,4545 3695,4585 "/>
  <polygon class="fil3" points="3712,4585 3842,4585 3823,4545 3697,4545 "/>
  <polygon class="fil3" points="1904,4662 1769,4662 1789,4619 1920,4619 "/>
  <polygon class="fil3" points="1922,4662 1939,4619 2069,4619 2057,4662 "/>
  <polygon class="fil3" points="2074,4662 2088,4619 2219,4619 2209,4662 "/>
  <polygon class="fil3" points="2227,4662 2239,4619 2369,4619 2362,4662 "/>
  <polygon class="fil3" points="2379,4662 2388,4619 2519,4619 2514,4662 "/>
  <polygon class="fil3" points="2532,4662 2538,4619 2669,4619 2667,4662 "/>
  <polygon class="fil3" points="2684,4662 2688,4619 2818,4619 2819,4662 "/>
  <polygon class="fil3" points="2835,4662 2836,4619 2967,4619 2970,4662 "/>
  <polygon class="fil3" points="2988,4662 2986,4619 3116,4619 3122,4662 "/>
  <polygon class="fil3" points="3140,4662 3135,4619 3266,4619 3275,4662 "/>
  <polygon class="fil3" points="3293,4662 3285,4619 3416,4619 3428,4662 "/>
  <polygon class="fil3" points="3445,4662 3435,4619 3566,4619 3580,4662 "/>
  <polygon class="fil3" points="3598,4662 3585,4619 3716,4619 3733,4662 "/>
  <polygon class="fil3" points="3750,4662 3885,4662 3865,4619 3735,4619 "/>
  <polygon class="fil3" points="1880,4737 1741,4737 1761,4693 1896,4693 "/>
  <polygon class="fil3" points="1898,4737 1916,4693 2050,4693 2037,4737 "/>
  <polygon class="fil3" points="2055,4737 2070,4693 2204,4693 2194,4737 "/>
  <polygon class="fil3" points="2212,4737 2224,4693 2359,4693 2351,4737 "/>
  <polygon class="fil3" points="2369,4737 2379,4693 2513,4693 2508,4737 "/>
  <polygon class="fil3" points="2527,4737 2533,4693 2668,4693 2666,4737 "/>
  <polygon class="fil3" points="2683,4737 2687,4693 2821,4693 2822,4737 "/>
  <polygon class="fil3" points="2839,4737 2840,4693 2974,4693 2978,4737 "/>
  <polygon class="fil3" points="2996,4737 2994,4693 3128,4693 3135,4737 "/>
  <polygon class="fil3" points="3153,4737 3148,4693 3283,4693 3292,4737 "/>
  <polygon class="fil3" points="3310,4737 3302,4693 3437,4693 3449,4737 "/>
  <polygon class="fil3" points="3467,4737 3457,4693 3592,4693 3606,4737 "/>
  <polygon class="fil3" points="3624,4737 3611,4693 3746,4693 3763,4737 "/>
  <polygon class="fil3" points="3781,4737 3920,4737 3900,4693 3765,4693 "/>
  <polygon class="fil3" points="1846,4814 1702,4814 1724,4768 1863,4768 "/>
  <polygon class="fil3" points="1865,4814 1883,4768 2022,4768 2009,4814 "/>
  <polygon class="fil3" points="2027,4814 2043,4768 2182,4768 2171,4814 "/>
  <polygon class="fil3" points="2190,4814 2203,4768 2342,4768 2334,4814 "/>
  <polygon class="fil3" points="2353,4814 2362,4768 2502,4768 2497,4814 "/>
  <polygon class="fil3" points="3138,4768 2522,4768 2515,4814 3145,4814 "/>
  <polygon class="fil3" points="3163,4814 3159,4768 3298,4768 3307,4814 "/>
  <polygon class="fil3" points="3326,4814 3318,4768 3457,4768 3470,4814 "/>
  <polygon class="fil3" points="3489,4814 3478,4768 3617,4768 3633,4814 "/>
  <polygon class="fil3" points="3651,4814 3638,4768 3777,4768 3795,4814 "/>
  <polygon class="fil3" points="3814,4814 3958,4814 3937,4768 3797,4768 "/>
  <path class="fil1" d="M4686 5008c-55,0 -119,-17 -179,-52 -129,-74 -195,-200 -148,-281 25,-43 76,-65 138,-65 56,0 119,17 180,52 128,74 194,200 147,281 -25,43 -76,65 -138,65z"/>
  <path class="fil3" d="M4822 4870l-1 0c0,4 -2,7 -4,10l0 0c-48,79 -308,34 -337,-35 -2,-6 -5,-12 -7,-17 -36,-78 -59,-56 -122,-108 -3,-3 -6,-5 -8,-7l0 -1c-36,-41 8,-93 8,-93 2,-2 5,-4 8,-6l0 0c21,-15 43,-25 65,-32 10,-3 21,-5 31,-6 185,-21 384,215 367,295z"/>
  <path class="fil4" d="M4817 4880c-48,79 -308,34 -337,-35 -2,-6 -5,-12 -7,-17 -36,-77 -61,-54 -122,-108 -3,-3 -5,-5 -8,-7l0 -1c-36,-41 8,-93 8,-93 2,-2 5,-4 8,-6 -5,15 -10,49 31,82 9,8 20,13 32,18 9,4 27,18 59,63 51,72 44,81 159,112 111,31 174,-6 177,-8z"/>
  <path class="fil4" d="M4537 4638c-66,-55 -113,-57 -113,-57 10,-3 21,-5 31,-6 53,18 82,61 82,63z"/>
  <path class="fil3" d="M1164 2201c-111,12 -120,21 -131,132 -12,-111 -21,-120 -132,-132 111,-11 120,-20 132,-131 11,111 20,120 131,131z"/>
  <path class="fil3" d="M4651 3706c-111,11 -120,20 -132,131 -11,-111 -20,-120 -131,-131 111,-12 120,-21 131,-132 12,111 21,120 132,132z"/>
  <path class="fil15" d="M3136 2066c-109,48 -184,65 -381,213l-2 1 1 -1c132,-209 143,-285 182,-397 38,-113 164,-178 164,-178l107 84 0 1 93 99c0,0 -55,131 -164,178z"/>
  <path class="fil11" d="M2902 2119c32,-67 48,-118 65,-170 5,-17 11,-34 17,-52 20,-59 102,-133 136,-157l68 63 69 64c-20,36 -83,128 -140,153 -18,7 -35,14 -51,21 -51,21 -99,41 -164,78z"/>
  <path class="fil16" d="M2987 2027c11,-27 21,-51 30,-76l0 0c8,-19 15,-38 23,-58 15,-37 66,-92 107,-128l84 78c-34,48 -81,103 -115,120 -19,10 -38,19 -56,28l0 0c-24,11 -48,23 -73,36z"/>
  <path class="fil17" d="M3217 1408c-25,-2 -52,3 -78,11 -131,43 -262,187 -262,187l0 0c-2,-3 -80,-133 8,-305 46,-90 126,-145 193,-177 12,-6 24,-3 32,4 5,6 9,13 9,21 1,7 -2,14 -7,20l193 -62 144 -48 0 0c-66,167 -232,349 -232,349z"/>
  <path class="fil18" d="M2877 1606c-2,-3 -80,-133 8,-305 46,-90 126,-145 193,-177 12,-6 24,-3 32,4 5,6 9,13 9,21 -2,7 -5,13 -7,20 0,0 -141,78 -202,219 -60,138 -33,215 -33,218z"/>
  <path class="fil19" d="M3217 1408c-25,-2 -52,3 -78,11 30,-119 101,-230 166,-312l144 -48 0 0c-66,167 -232,349 -232,349z"/>
  <path class="fil17" d="M3586 1748c3,25 1,52 -6,79 -32,133 -165,275 -165,275l0 0c4,2 139,70 304,-32 86,-53 134,-138 161,-206 4,-13 0,-24 -7,-32 -6,-5 -14,-8 -22,-8 -7,1 -14,3 -19,10l47 -198 35 -147 0 0c-161,78 -328,259 -328,259z"/>
  <path class="fil18" d="M3415 2102c4,2 139,70 304,-32 86,-53 134,-138 161,-206 4,-13 0,-24 -7,-32 -6,-5 -14,-8 -22,-8 -6,3 -13,6 -19,10 0,0 -67,146 -202,218 -133,71 -212,51 -215,50z"/>
  <path class="fil19" d="M3586 1748c3,25 1,52 -6,79 117,-40 221,-119 299,-191l35 -147 0 0c-161,78 -328,259 -328,259z"/>
  <path class="fil3" d="M3900 1502c-43,46 -77,82 -114,114 -37,32 -76,61 -128,92 -1,1 -3,2 -5,3l-86 45 -95 50 -180 94 -204 -188 9 -21 70 -167 42 -98c52,-125 126,-242 219,-344 2,-2 5,-5 8,-8 128,-139 257,-229 374,-289 8,-4 16,-8 24,-12 20,-9 39,-18 58,-25 8,-4 16,-7 24,-10 4,-1 8,-3 12,-4 50,-19 97,-32 137,-41 48,-10 87,-15 116,-17 31,-2 55,20 55,51 1,54 -5,144 -37,257 -1,5 -2,9 -4,14 -2,8 -4,16 -7,24 -6,19 -13,39 -21,59 -3,9 -6,17 -10,25 -49,121 -129,257 -257,396z"/>
  <path class="fil2" d="M3386 1850l-94 50c-11,-6 -22,-12 -32,-18 -9,-5 -18,-11 -26,-16 -30,-21 -57,-43 -81,-68 -25,-26 -47,-55 -65,-86l42 -98c25,39 53,74 83,106 37,38 78,72 123,101 7,5 15,9 23,14 9,5 18,10 27,15z"/>
  <path class="fil4" d="M3153 1798c-25,-26 -47,-55 -65,-86l42 -98 37 -90 42 -98c52,-125 126,-242 219,-344 2,-2 5,-5 8,-8 173,-188 349,-287 492,-340 50,-19 97,-32 137,-41 8,37 24,40 -20,102 0,0 -407,125 -601,421 -178,270 -57,283 -57,283l-174 221 -60 78z"/>
  <path class="fil17" d="M3109 1916c-7,3 -14,1 -18,-3 -5,-4 -7,-11 -4,-18 101,-258 438,-525 579,-629 8,-5 16,-4 21,1 5,5 8,13 3,21 -92,149 -332,506 -581,628z"/>
  <path class="fil19" d="M3687 1267l-596 646c-5,-4 -7,-11 -4,-18 101,-258 438,-525 579,-629 8,-5 16,-4 21,1z"/>
  <path class="fil2" d="M3958 1202c-58,63 -156,67 -219,9 -63,-58 -67,-156 -9,-219 58,-63 156,-67 219,-9 63,58 67,156 9,219z"/>
  <path class="fil20" d="M3934 1180l-1 1c-46,48 -122,52 -171,7l-1 -1c-9,-8 -16,-16 -22,-26 -10,-17 -16,-36 -17,-55 -1,-17 1,-34 6,-50 6,-15 14,-30 26,-42 46,-50 123,-53 173,-7 13,11 22,25 29,40 7,15 10,32 11,49 0,19 -5,39 -14,57 -5,9 -11,19 -19,27z"/>
  <path class="fil21" d="M3753 1014c0,0 0,0 0,0 0,0 0,0 0,0zm1 0c0,0 0,0 0,0 0,0 0,0 0,0zm0 0c24,-26 57,-40 90,-40 -33,0 -66,14 -90,40zm173 -7c0,-1 -1,-1 -1,-1 0,0 1,0 1,1zm-83 -33c0,0 0,0 0,0l0 0c0,0 0,0 0,0z"/>
  <path class="fil22" d="M3927 1187c5,-6 9,-13 13,-20 9,-17 13,-37 13,-56 0,-17 -4,-34 -11,-49 -6,-15 -16,-29 -29,-40 -23,-22 -53,-33 -83,-33 -30,0 -59,11 -83,32 2,-2 4,-4 6,-7 0,0 0,0 0,0 0,0 1,0 1,0 0,0 0,0 0,0l0 0c24,-26 57,-40 90,-40 0,0 0,0 0,0 0,0 0,0 0,0 29,0 59,11 82,32 0,0 1,0 1,1l0 0c13,11 22,25 29,40 7,15 10,32 11,49 0,0 0,1 0,1 0,19 -5,38 -14,56 -5,9 -11,19 -19,27l-1 1 0 0c-2,2 -4,4 -6,6z"/>
  <path class="fil23" d="M3927 1064c0,0 3,70 -47,102 -54,34 -100,6 -131,-44 0,0 4,57 71,79 69,22 135,-52 107,-137z"/>
  <path class="fil17" d="M4199 984c-105,-67 -195,-151 -271,-250 110,-41 200,-54 253,-58 19,-1 35,6 45,20 7,8 10,19 10,31 1,54 -5,144 -37,257z"/>
  <path class="fil18" d="M4213 792c1,-10 3,-17 5,-33 2,-25 -2,-36 -19,-35 -31,0 -63,126 -28,173 27,37 38,-60 42,-105z"/>
  <path class="fil24" d="M4199 984c-75,-49 -144,-106 -204,-171 -24,-25 -46,-52 -67,-79 110,-41 200,-54 253,-58 1,0 3,0 4,0 18,0 32,7 41,20 0,0 -1,0 -3,0 -17,0 -88,2 -128,46 -46,50 -22,152 104,242z"/>
 </g>
</svg>
