<?xml version="1.0" encoding="UTF-8"?>
<!DOCTYPE svg PUBLIC "-//W3C//DTD SVG 1.1//EN" "http://www.w3.org/Graphics/SVG/1.1/DTD/svg11.dtd">
<!-- Creator: CorelDRAW X8 -->
<svg xmlns="http://www.w3.org/2000/svg" xml:space="preserve" width="59.2666mm" height="59.2666mm" version="1.1" style="shape-rendering:geometricPrecision; text-rendering:geometricPrecision; image-rendering:optimizeQuality; fill-rule:evenodd; clip-rule:evenodd"
viewBox="0 0 5927 5927"
 xmlns:xlink="http://www.w3.org/1999/xlink">
 <defs>
  <style type="text/css">
   <![CDATA[
    .fil0 {fill:#A9ABAE}
    .fil3 {fill:#FEFEFE;fill-rule:nonzero}
    .fil13 {fill:#F79E74;fill-rule:nonzero}
    .fil17 {fill:#F4804F;fill-rule:nonzero}
    .fil42 {fill:#EE4E9B;fill-rule:nonzero}
    .fil8 {fill:#F7FBFE;fill-rule:nonzero}
    .fil10 {fill:#D2E2F4;fill-rule:nonzero}
    .fil21 {fill:#D1DCE6;fill-rule:nonzero}
    .fil31 {fill:#B6E3F0;fill-rule:nonzero}
    .fil27 {fill:#B4E2F0;fill-rule:nonzero}
    .fil20 {fill:#894646;fill-rule:nonzero}
    .fil33 {fill:#A7DDED;fill-rule:nonzero}
    .fil35 {fill:#A4DCED;fill-rule:nonzero}
    .fil2 {fill:#97D8EB;fill-rule:nonzero}
    .fil22 {fill:#88D4EA;fill-rule:nonzero}
    .fil30 {fill:#85D3EA;fill-rule:nonzero}
    .fil1 {fill:#66CBE8;fill-rule:nonzero}
    .fil40 {fill:#5E64AC;fill-rule:nonzero}
    .fil41 {fill:#404898;fill-rule:nonzero}
    .fil15 {fill:#354A7E;fill-rule:nonzero}
    .fil6 {fill:url(#id0)}
    .fil4 {fill:url(#id1)}
    .fil11 {fill:url(#id2)}
    .fil14 {fill:url(#id3)}
    .fil38 {fill:url(#id4)}
    .fil7 {fill:url(#id5)}
    .fil39 {fill:url(#id6)}
    .fil24 {fill:url(#id7)}
    .fil12 {fill:url(#id8)}
    .fil29 {fill:url(#id9)}
    .fil28 {fill:url(#id10)}
    .fil37 {fill:url(#id11)}
    .fil19 {fill:url(#id12)}
    .fil36 {fill:url(#id13)}
    .fil34 {fill:url(#id14)}
    .fil18 {fill:url(#id15)}
    .fil5 {fill:url(#id16)}
    .fil26 {fill:url(#id17)}
    .fil23 {fill:url(#id18)}
    .fil9 {fill:url(#id19)}
    .fil16 {fill:url(#id20)}
    .fil32 {fill:url(#id21)}
    .fil25 {fill:url(#id22)}
   ]]>
  </style>
  <linearGradient id="id0" gradientUnits="userSpaceOnUse" x1="4896.9" y1="3310.32" x2="4687.1" y2="3310.32">
   <stop offset="0" style="stop-opacity:1; stop-color:#5E64AC"/>
   <stop offset="1" style="stop-opacity:1; stop-color:#7ED1E4"/>
  </linearGradient>
  <linearGradient id="id1" gradientUnits="userSpaceOnUse" x1="906.46" y1="2857.67" x2="1089.47" y2="2857.67">
   <stop offset="0" style="stop-opacity:1; stop-color:#A577B3"/>
   <stop offset="1" style="stop-opacity:1; stop-color:#F69041"/>
  </linearGradient>
  <linearGradient id="id2" gradientUnits="userSpaceOnUse" x1="3392.32" y1="2900.56" x2="3392.32" y2="3457.29">
   <stop offset="0" style="stop-opacity:1; stop-color:#736AAE"/>
   <stop offset="0.941176" style="stop-opacity:1; stop-color:#A594C6"/>
   <stop offset="1" style="stop-opacity:1; stop-color:#A594C6"/>
  </linearGradient>
  <linearGradient id="id3" gradientUnits="userSpaceOnUse" x1="2313.57" y1="4664.75" x2="3181.91" y2="4664.75">
   <stop offset="0" style="stop-opacity:1; stop-color:#DBDBEE"/>
   <stop offset="1" style="stop-opacity:1; stop-color:#DCF1F6"/>
  </linearGradient>
  <linearGradient id="id4" gradientUnits="userSpaceOnUse" x1="855.41" y1="3714.3" x2="1517.88" y2="3118.51">
   <stop offset="0" style="stop-opacity:1; stop-color:#A4DCED"/>
   <stop offset="1" style="stop-opacity:1; stop-color:#FEFEFE"/>
  </linearGradient>
  <linearGradient id="id5" gradientUnits="userSpaceOnUse" xlink:href="#id2" x1="2214.99" y1="2654.47" x2="4813.11" y2="2654.47">
  </linearGradient>
  <linearGradient id="id6" gradientUnits="userSpaceOnUse" xlink:href="#id3" x1="1240.5" y1="4320.29" x2="2052.38" y2="4320.29">
  </linearGradient>
  <linearGradient id="id7" gradientUnits="userSpaceOnUse" x1="4896.92" y1="3310.34" x2="4687.11" y2="3310.34">
   <stop offset="0" style="stop-opacity:1; stop-color:#47B5E7"/>
   <stop offset="1" style="stop-opacity:1; stop-color:#6DCDE7"/>
  </linearGradient>
  <linearGradient id="id8" gradientUnits="userSpaceOnUse" x1="2635.71" y1="3490.69" x2="2339.1" y2="3196.57">
   <stop offset="0" style="stop-opacity:1; stop-color:#66CBE8"/>
   <stop offset="0.701961" style="stop-opacity:1; stop-color:#EAEDEE"/>
   <stop offset="1" style="stop-opacity:1; stop-color:#EAEDEE"/>
  </linearGradient>
  <linearGradient id="id9" gradientUnits="userSpaceOnUse" x1="2214.82" y1="2654.46" x2="4813.09" y2="2654.46">
   <stop offset="0" style="stop-opacity:1; stop-color:#5DB5E5"/>
   <stop offset="0.941176" style="stop-opacity:1; stop-color:#60C7F2"/>
   <stop offset="1" style="stop-opacity:1; stop-color:#60C7F2"/>
  </linearGradient>
  <linearGradient id="id10" gradientUnits="userSpaceOnUse" xlink:href="#id7" x1="4896.91" y1="3310.32" x2="4687.1" y2="3310.32">
  </linearGradient>
  <linearGradient id="id11" gradientUnits="userSpaceOnUse" x1="2214.86" y1="2654.47" x2="4813.1" y2="2654.47">
   <stop offset="0" style="stop-opacity:1; stop-color:#6B97CE"/>
   <stop offset="0.941176" style="stop-opacity:1; stop-color:#80B6E2"/>
   <stop offset="1" style="stop-opacity:1; stop-color:#80B6E2"/>
  </linearGradient>
  <linearGradient id="id12" gradientUnits="userSpaceOnUse" xlink:href="#id8" x1="3071.98" y1="3672.17" x2="3112.75" y2="3374.59">
  </linearGradient>
  <linearGradient id="id13" gradientUnits="userSpaceOnUse" x1="4896.92" y1="3310.32" x2="4687.11" y2="3310.32">
   <stop offset="0" style="stop-opacity:1; stop-color:#5496D0"/>
   <stop offset="1" style="stop-opacity:1; stop-color:#74CEE6"/>
  </linearGradient>
  <linearGradient id="id14" gradientUnits="userSpaceOnUse" xlink:href="#id11" x1="2214.76" y1="2654.46" x2="4813.06" y2="2654.46">
  </linearGradient>
  <linearGradient id="id15" gradientUnits="userSpaceOnUse" xlink:href="#id8" x1="2900.76" y1="4272.39" x2="2972.65" y2="2646.73">
  </linearGradient>
  <linearGradient id="id16" gradientUnits="userSpaceOnUse" xlink:href="#id8" x1="3846.41" y1="4327.16" x2="3331.97" y2="503.93">
  </linearGradient>
  <linearGradient id="id17" gradientUnits="userSpaceOnUse" x1="2214.69" y1="2654.46" x2="4813.11" y2="2654.46">
   <stop offset="0" style="stop-opacity:1; stop-color:#6F8AC5"/>
   <stop offset="0.941176" style="stop-opacity:1; stop-color:#8BADDB"/>
   <stop offset="1" style="stop-opacity:1; stop-color:#8BADDB"/>
  </linearGradient>
  <linearGradient id="id18" gradientUnits="userSpaceOnUse" x1="3846.49" y1="4327.1" x2="3332.1" y2="503.98">
   <stop offset="0" style="stop-opacity:1; stop-color:#66CBE8"/>
   <stop offset="0.701961" style="stop-opacity:1; stop-color:#80D1E7"/>
   <stop offset="1" style="stop-opacity:1; stop-color:#80D1E7"/>
  </linearGradient>
  <linearGradient id="id19" gradientUnits="userSpaceOnUse" xlink:href="#id0" x1="3461.99" y1="1624.82" x2="3595.06" y2="3259.7">
  </linearGradient>
  <linearGradient id="id20" gradientUnits="userSpaceOnUse" xlink:href="#id8" x1="2632.8" y1="4295.86" x2="2711.04" y2="2688.31">
  </linearGradient>
  <linearGradient id="id21" gradientUnits="userSpaceOnUse" xlink:href="#id1" x1="2642.78" y1="2537.42" x2="2980.66" y2="1893.34">
  </linearGradient>
  <linearGradient id="id22" gradientUnits="userSpaceOnUse" x1="4896.87" y1="3310.29" x2="4687.17" y2="3310.29">
   <stop offset="0" style="stop-opacity:1; stop-color:#5788C6"/>
   <stop offset="1" style="stop-opacity:1; stop-color:#74CEE6"/>
  </linearGradient>
 </defs>
 <g id="Capa_x0020_1">
  <metadata id="CorelCorpID_0Corel-Layer"/>
  <circle class="fil0" cx="2930" cy="2964" r="2786"/>
  <path class="fil1" d="M4324 4255c18,11 32,36 32,57 0,21 -15,29 -33,18l-296 -171c-18,-10 -33,-35 -33,-56 0,-21 15,-29 33,-19l297 171z"/>
  <path class="fil2" d="M708 3352c-28,0 -47,-22 -47,-61l-2 -843c0,-23 16,-51 35,-62l503 -290c13,-8 26,-11 37,-11 28,0 48,22 48,60l2 843c0,23 -16,51 -36,62l-502 290c-14,8 -26,12 -38,12z"/>
  <path class="fil3" d="M771 2692c-5,3 -10,11 -10,18l0 45c0,7 5,9 11,6l409 -237c6,-3 11,-11 11,-18l0 -45c0,-6 -5,-9 -11,-6l-410 237z"/>
  <path class="fil3" d="M772 2789c-6,4 -11,12 -11,19l0 44c0,7 5,10 11,6l410 -236c5,-3 10,-12 10,-18l0 -45c0,-7 -5,-10 -11,-6l-409 236z"/>
  <path class="fil4" d="M932 2862c-14,8 -26,27 -26,43l0 11c0,16 12,22 26,14l132 -76c14,-8 26,-28 26,-44l0 -10c-1,-16 -12,-23 -26,-15l-132 77z"/>
  <path class="fil5" d="M4640 2358l-2294 -1324c0,0 0,0 0,0 0,0 0,0 0,0 0,-1 0,-1 0,-1 0,0 0,0 0,0 0,0 0,0 -1,0 0,0 0,0 0,0 0,0 0,0 0,0 -20,-11 -39,-17 -56,-17 -11,0 -21,3 -30,7 0,0 0,0 0,0 0,0 0,0 0,0 -1,1 -2,1 -3,2l84 -49c3,-2 7,-3 10,-5 3,-1 6,-1 9,-2l0 0 0 0c2,-1 5,-1 7,-1 2,0 5,0 7,0 0,0 0,0 0,0 2,0 4,0 6,0l1 0 1 0c1,0 2,0 3,0 2,1 4,1 6,1 2,1 3,1 5,1 2,1 4,1 5,2 2,0 3,1 4,1l0 0 1 1c2,0 4,1 6,1 1,1 3,2 5,3 1,0 3,1 5,2 1,1 3,2 5,3 1,0 3,1 4,2l1873 1084 0 44c0,12 7,23 17,29l347 201 -27 15z"/>
  <path class="fil6" d="M4772 4284c0,0 0,0 0,0 22,-13 36,-40 37,-77 0,-1 0,-3 0,-4l0 0 1 -445 83 48 -1 348 0 1c0,2 0,4 0,6 0,2 0,4 0,6 0,2 -1,4 -1,6 0,2 0,4 -1,6l0 3 0 0 -1 3c0,2 -1,4 -2,7 0,2 -1,4 -2,6 -1,2 -2,5 -2,7l-1 0 0 0c-1,3 -3,6 -5,9 -1,2 -3,4 -4,6 -1,1 -2,3 -4,4 -4,4 -8,8 -13,11l-84 49zm122 -603l-84 -48 2 -758 26 15c6,3 12,5 17,5 18,0 35,-15 35,-35l0 -45c0,-12 -6,-23 -17,-30l-60 -34 0 -100 84 48 -3 982zm3 -1106l-103 -59c-22,-54 -62,-105 -107,-131l0 0 27 -15 163 94c0,0 0,1 1,2 0,2 1,4 2,6 1,2 2,4 2,6 1,2 2,5 3,7 0,2 1,4 2,6l0 1 0 1c1,1 1,3 2,5 0,2 1,4 1,7 1,2 2,4 2,6 1,2 1,5 1,7 1,2 1,4 1,6l0 0 0 0c1,2 1,4 1,7 1,2 1,4 1,6 0,2 0,4 1,6 0,2 0,4 0,6 0,2 0,4 0,6l0 20z"/>
  <path class="fil7" d="M4739 4293c-18,0 -37,-6 -57,-18l-2341 -1351c-70,-41 -126,-138 -126,-219l3 -1007 165 96 -3 946c0,74 52,164 116,201l2042 1178c18,11 36,16 52,16 38,0 64,-30 64,-82l1 -384 155 89 -1 445 0 0c0,1 0,3 0,4 -1,37 -15,64 -37,77 -10,6 -21,9 -33,9zm71 -660l-69 -40 0 -463c0,-9 -7,-17 -17,-17 -9,0 -17,8 -17,17l0 443 -51 -30 2 -757 154 89 -2 758zm3 -882l-155 -90 0 -79c0,-7 0,-14 -1,-21l156 90 0 100zm-19 -235l-440 -254c-5,-4 -11,-5 -17,-5 -3,0 -6,0 -9,1l-1827 -1054c-19,-11 -37,-16 -52,-16 -38,0 -65,30 -65,82l-1 344 -165 -96 1 -412c0,-41 16,-70 40,-83 0,0 0,0 0,0 0,0 0,0 0,0 9,-4 19,-7 30,-7 17,0 36,6 56,17 0,0 0,0 0,0 0,0 0,0 0,0 0,0 1,0 1,0 0,0 0,0 0,0 0,0 0,0 0,1 0,0 0,0 0,0 0,0 0,0 0,0l0 0 2294 1324 47 27 0 0c45,26 85,77 107,131z"/>
  <path class="fil8" d="M4543 2382c64,37 116,127 115,200l-4 1471c0,74 -52,103 -116,66l-2042 -1178c-64,-37 -116,-127 -116,-201l4 -1470c0,-74 53,-103 117,-66l2042 1178z"/>
  <path class="fil8" d="M4724 3660c-9,0 -17,-8 -17,-17l0 -513c0,-9 8,-17 17,-17 10,0 17,8 17,17l0 513c0,9 -7,17 -17,17z"/>
  <path class="fil3" d="M2294 2019c20,12 37,40 37,63 -1,22 -17,32 -37,20 -20,-11 -36,-39 -36,-62 0,-23 17,-32 36,-21z"/>
  <path class="fil9" d="M3515 2242c42,24 76,5 76,-43 0,-48 -33,-106 -75,-130 -42,-24 -76,-5 -76,43 0,48 34,106 75,130zm183 -6c7,21 11,42 14,63 1,13 2,25 2,37 0,4 0,7 0,11l0 2c0,3 -1,6 -1,9l0 2c-1,4 -1,7 -1,10 -1,4 -2,7 -2,10 -1,4 -2,7 -2,10l-1 1c0,3 -1,6 -2,9l-1 1c0,3 -1,5 -2,8 -2,3 -3,6 -4,8 -1,3 -3,6 -4,8l-1 1c-1,2 -2,5 -4,7l0 1c-2,2 -3,4 -5,6 -1,2 -3,4 -5,6l0 1c-2,2 -4,3 -5,5l-1 1c-2,1 -4,3 -5,4l-1 1c-2,2 -4,3 -6,4 -2,2 -4,3 -6,4l-1 1c-2,1 -4,2 -6,3l-2 1c-2,1 -4,2 -6,2 -2,1 -3,1 -4,2 -1,-78 -56,-173 -123,-212 -69,-39 -124,-7 -124,71 0,0 2,3 5,9 -1,-2 -3,-5 -5,-7 -3,-4 -5,-7 -7,-11l-1 -1c-2,-4 -4,-7 -6,-10l-2 -2c-2,-4 -4,-7 -6,-11 -2,-4 -4,-7 -6,-11l-1 -2c-2,-3 -4,-7 -6,-10l-1 -2c-1,-4 -3,-7 -5,-11 -2,-4 -3,-8 -5,-12l-1 -2c-2,-4 -3,-7 -5,-11 -2,-5 -3,-8 -4,-12l-1 -2c-1,-3 -3,-7 -4,-11l-1 -2c-2,-7 -4,-15 -6,-23l-1 -2c-1,-4 -2,-7 -3,-11l0 -2c-1,-3 -2,-7 -2,-10 -1,-5 -2,-9 -3,-13l0 -2c-1,-4 -1,-7 -2,-11 0,-5 -1,-8 -1,-12l0 -1c0,-4 0,-8 -1,-11l0 -2c0,-4 0,-8 0,-11 0,-12 1,-24 3,-34 2,-18 7,-34 13,-48 2,-3 3,-5 4,-8 33,-59 103,-73 184,-26 72,41 135,122 171,208 2,5 5,11 7,17 3,8 6,17 8,25z"/>
  <path class="fil10" d="M4016 2877c16,9 29,31 29,49l-1 119c0,18 -12,25 -28,16l-1087 -628c-16,-9 -28,-31 -28,-49l0 -118c0,-18 13,-26 29,-17l1086 628z"/>
  <path class="fil10" d="M4016 3136c15,9 28,30 28,48l0 119c-1,18 -13,25 -29,16l-1087 -627c-15,-9 -28,-31 -28,-49l0 -119c0,-18 13,-25 29,-16l1087 628z"/>
  <path class="fil11" d="M3531 3187c29,17 53,58 53,92l-1 21c0,34 -23,47 -53,30l-276 -159c-29,-17 -53,-58 -53,-92l0 -21c0,-34 24,-47 53,-30l277 159z"/>
  <path class="fil12" d="M2528 3172c0,0 -94,54 -108,301 12,46 84,70 139,34 55,-36 -2,-293 -31,-335z"/>
  <path class="fil13" d="M3005 3439c0,0 215,-96 244,-112 28,-16 50,-76 61,-88 11,-13 60,-42 58,-29 -2,13 -27,36 -27,36 0,0 18,31 21,51 4,19 -23,59 -38,70 -14,11 -48,14 -48,14 0,0 -175,118 -204,120 -29,1 -71,-15 -67,-62z"/>
  <path class="fil14" d="M2748 4923c-240,0 -434,-116 -434,-258 0,-143 194,-258 434,-258 240,0 434,115 434,258 0,142 -194,258 -434,258z"/>
  <path class="fil15" d="M2568 4609c0,0 -6,41 2,58 7,15 37,26 57,11 21,-15 56,-52 56,-52 0,0 60,-32 65,-48 6,-17 -15,-32 -32,-28 -16,3 -65,33 -87,33 -22,0 -54,6 -61,26z"/>
  <path class="fil15" d="M2506 3738c0,0 52,859 59,884 6,25 74,39 86,0 8,-25 28,-820 28,-820l-173 -64z"/>
  <path class="fil15" d="M2740 4660c-3,3 -5,6 -5,10 0,12 1,38 7,49 9,13 36,27 65,12 24,-13 98,-69 113,-81 9,-7 13,-17 15,-24 2,-6 -1,-13 -7,-15 -11,-5 -29,-11 -45,-5 -24,8 -55,34 -89,33 -25,-1 -46,14 -54,21z"/>
  <path class="fil15" d="M2855 3748c-4,-36 -47,-48 -86,-36 -75,-4 -191,0 -195,58 -7,86 34,148 73,190 29,31 48,90 56,119 7,227 22,549 31,579 16,50 90,48 94,-1 15,-163 27,-909 27,-909z"/>
  <path class="fil16" d="M2855 3775c-9,44 -135,66 -208,54 -73,-12 -153,-48 -150,-133 0,0 -11,-340 -11,-407 0,-67 42,-117 42,-117 0,0 41,-47 170,-20 0,0 106,23 154,100 0,0 34,86 23,264 -12,179 -20,259 -20,259z"/>
  <path class="fil17" d="M2597 3057c0,0 12,65 0,95 -1,15 64,65 121,52 34,-7 32,-24 32,-24 0,0 -28,-47 -24,-91 4,-45 -89,-41 -129,-32z"/>
  <path class="fil13" d="M2815 2926c0,85 -69,153 -153,153 -85,0 -154,-68 -154,-153 0,-85 69,-153 154,-153 84,0 153,68 153,153z"/>
  <path class="fil13" d="M2815 2936c0,0 2,154 -32,185 -33,31 -84,-29 -167,-48 -82,-21 67,-181 67,-181l132 44z"/>
  <path class="fil18" d="M2803 3217c0,0 33,-10 72,45 38,55 93,127 120,139 26,12 62,-12 76,-12 15,0 53,68 39,101 -15,34 -108,51 -132,51 -24,0 -180,-94 -202,-147 -21,-53 -55,-175 27,-177z"/>
  <path class="fil19" d="M3050 3397c0,0 9,-27 43,-29 34,-3 72,62 70,98 -3,36 -56,55 -68,46 -12,-10 12,-34 -45,-115z"/>
  <path class="fil20" d="M2753 2797c0,0 56,12 72,96 -7,36 -57,7 -76,55 -20,48 -32,62 -32,62l-12 -5c0,0 0,-38 -16,-38 -17,0 -22,46 -12,65 9,19 31,29 31,29 0,0 -24,40 -36,45 -12,5 -55,-5 -72,-12 -17,-7 -48,-41 -72,-79 -24,-38 -46,-106 -31,-151 14,-46 48,-58 48,-58 0,0 19,-26 52,-38 34,-12 96,-17 156,29z"/>
  <path class="fil21" d="M2780 3184l-40 -23c0,0 -103,-9 -139,-33l-20 27c0,0 26,50 92,56 65,6 96,-19 96,-19l11 -8z"/>
  <path class="fil22" d="M4550 2046c-6,0 -12,-1 -17,-4l-212 -123c-11,-7 -17,-18 -17,-30l0 -45c0,-20 16,-35 34,-35 6,0 12,2 17,5l213 123c10,6 17,18 17,30l0 45c0,20 -17,34 -35,34z"/>
  <path class="fil22" d="M5221 2657c-6,0 -12,-1 -17,-4l-327 -189c-1,-1 -1,-2 -1,-3l0 0 -1 -1c-1,-2 -2,-4 -3,-6 -1,-2 -2,-5 -3,-7 -1,-2 -3,-5 -4,-7 -1,-3 -3,-6 -4,-8l-1 -2 -1 -2c-3,-5 -6,-10 -9,-14 -3,-4 -6,-8 -8,-12 -2,-2 -4,-5 -6,-7 -2,-2 -3,-4 -5,-6 -2,-2 -3,-4 -5,-6 -1,-2 -3,-4 -5,-5l-1 -1 0 -1c-1,-1 -3,-2 -4,-4 -2,-2 -3,-3 -5,-5 -2,-2 -4,-4 -6,-5 -2,-2 -4,-4 -5,-5l-3 -2 -1 -1 -2 -2c-2,-1 -4,-3 -6,-4 -1,-1 -3,-3 -5,-4 -2,-1 -4,-2 -5,-3 -2,-2 -4,-3 -6,-4l-1 0 -57 33 -47 -27 54 -32 -418 -242 0 -2c0,-20 17,-34 35,-34 5,0 11,2 17,5l884 510c10,6 17,18 17,30l0 45c0,20 -17,34 -35,34z"/>
  <path class="fil23" d="M4667 2343l-347 -201c-10,-6 -17,-17 -17,-29l0 -44 418 242 -54 32z"/>
  <path class="fil24" d="M4877 2464l-163 -94 57 -33 1 0c2,1 4,2 6,4 1,1 3,2 5,3 2,1 4,3 5,4 2,1 4,3 6,4l2 2 1 1 3 2c1,1 3,3 5,5 2,1 4,3 6,5 2,2 3,3 5,5 1,2 3,3 4,4l0 1 1 1c2,1 4,3 5,5 2,2 3,4 5,6 2,2 3,4 5,6 2,2 4,5 6,7 2,4 5,8 8,12 3,4 6,9 9,14l1 2 1 2c1,2 3,5 4,8 1,2 3,5 4,7 1,2 2,5 3,7 1,2 2,4 3,6l1 1 0 0c0,1 0,2 1,3z"/>
  <path class="fil25" d="M4855 2895c-5,0 -11,-2 -17,-5l-26 -15 1 -124 60 34c11,7 17,18 17,30l0 45c0,20 -17,35 -35,35z"/>
  <polygon class="fil26" points="4812,2875 4658,2786 4658,2661 4813,2751 "/>
  <path class="fil27" d="M4658 2786l-339 -196c-11,-6 -17,-17 -17,-30l0 -45c0,-20 16,-34 34,-34 6,0 12,1 17,5l305 175 0 125z"/>
  <path class="fil22" d="M5083 2802c-5,0 -11,-1 -17,-5l-169 -98 0 -124 204 118c11,6 17,17 17,30l0 45c0,20 -17,34 -35,34zm-270 -199c0,-7 0,-14 -1,-22 1,8 1,15 1,22zm-2 -30c-1,-2 -1,-3 -1,-5 0,2 0,3 1,5l0 0z"/>
  <path class="fil28" d="M4897 2699l-84 -48 0 -48 0 0c0,-7 0,-14 -1,-22 -1,-3 -1,-6 -1,-8l0 0c-1,-2 -1,-3 -1,-5 -3,-17 -9,-35 -16,-52l103 59 0 124z"/>
  <path class="fil29" d="M4813 2651l-156 -90c-8,-69 -56,-146 -114,-179l-215 -124c3,-1 6,-1 9,-1 6,0 12,1 17,5l440 254c7,17 13,35 16,52 0,2 0,3 1,5 0,2 0,5 1,8 1,8 1,15 1,22l0 0 0 48z"/>
  <path class="fil30" d="M4657 2561l-337 -195c-11,-6 -18,-17 -18,-30l0 -45c1,-16 12,-29 26,-33l215 124c58,33 106,110 114,179z"/>
  <path class="fil22" d="M1058 1687c-10,0 -18,-7 -18,-17l0 -24c0,-6 3,-12 9,-15l109 -63c3,-2 6,-3 9,-3 9,0 17,8 17,18l0 23c0,6 -3,12 -8,15l-110 64c-2,1 -5,2 -8,2z"/>
  <path class="fil22" d="M712 2002c-9,0 -17,-8 -17,-18l0 -23c0,-7 3,-13 8,-16l455 -262c3,-2 6,-3 9,-3 9,0 18,8 18,18l0 23c0,7 -4,12 -9,16l-455 262c-3,2 -6,3 -9,3z"/>
  <path class="fil31" d="M901 2124c-10,0 -18,-8 -18,-18l0 -23c0,-7 3,-12 9,-16l267 -154c3,-1 6,-2 9,-2 9,0 17,7 17,17l0 24c0,6 -3,12 -8,15l-268 154c-3,2 -6,3 -8,3z"/>
  <path class="fil22" d="M783 2076c-9,0 -17,-7 -18,-18l0 -23c0,-6 4,-12 9,-15l384 -222c3,-2 6,-2 9,-2 10,0 18,7 18,17l0 23c0,7 -3,13 -9,16l-384 222c-3,1 -6,2 -9,2z"/>
  <path class="fil32" d="M2866 2460c0,102 -82,184 -183,184 -101,0 -183,-82 -183,-184 0,-101 82,-183 183,-183 101,0 183,82 183,183z"/>
  <polygon class="fil3" points="2667,2545 2591,2489 2619,2451 2658,2480 2739,2377 2776,2406 "/>
  <path class="fil33" d="M2218 1698l-486 -280c-43,-25 -78,-85 -78,-135 0,-35 18,-56 44,-56 10,0 22,4 35,11l485 280 0 180z"/>
  <polygon class="fil34" points="2383,1794 2218,1698 2218,1518 2383,1614 "/>
  <path class="fil35" d="M2479 1840c-11,0 -23,-4 -35,-11l-61 -35 0 -180 61 35c43,25 78,85 78,135 0,35 -17,56 -43,56z"/>
  <path class="fil33" d="M5166 3957c-7,0 -16,-3 -24,-8l-249 -143 1 -125 248 143c30,18 54,60 54,94 0,25 -12,39 -30,39z"/>
  <polygon class="fil36" points="4893,3806 4810,3758 4810,3633 4894,3681 "/>
  <path class="fil37" d="M4810 3758l-155 -89 1 -126 51 30 0 70c0,9 8,17 17,17 10,0 17,-8 17,-17l0 -50 69 40 0 125z"/>
  <path class="fil35" d="M4655 3669l-8 -5c-30,-17 -54,-60 -54,-94 0,-25 12,-39 30,-39 7,0 16,3 24,8l9 4 -1 126z"/>
  <path class="fil35" d="M4724 3660c-9,0 -17,-8 -17,-17l0 -70 34 20 0 50c0,9 -7,17 -17,17z"/>
  <path class="fil38" d="M1732 3310c18,10 18,28 0,38l-608 353c-18,11 -47,11 -66,0l-374 -216c-19,-11 -19,-28 -1,-38l608 -354c18,-10 48,-10 66,0l375 217z"/>
  <path class="fil39" d="M1645 4579c-114,0 -228,-26 -315,-76 -174,-101 -173,-264 2,-365 87,-51 202,-76 316,-76 114,0 228,25 315,76 173,101 173,264 -2,365 -88,50 -202,76 -316,76z"/>
  <path class="fil40" d="M1544 4368c0,0 -80,21 -111,21 -32,0 0,31 52,35 52,3 101,7 112,-7 10,-14 -3,-54 -3,-54l-50 5z"/>
  <path class="fil40" d="M1768 4294c0,0 -80,21 -112,21 -31,0 0,32 53,35 52,4 101,7 111,-7 11,-14 -2,-53 -2,-53l-50 4z"/>
  <path class="fil41" d="M1785 3427c0,0 30,799 34,882 0,0 -23,19 -51,10 0,0 -94,-524 -108,-659 -14,-135 -38,-182 -38,-182l163 -51z"/>
  <path class="fil41" d="M1487 3474c0,0 -28,461 56,908 0,0 28,14 51,-19 0,0 52,-782 66,-894 14,-112 -135,-19 -173,5z"/>
  <path class="fil41" d="M1613 3827c0,0 47,-130 89,-200 42,-70 32,-172 32,-172l-158 14 37 358z"/>
  <path class="fil13" d="M1452 3018l-139 -67c0,0 -41,-42 -52,-51 -10,-8 -80,-25 -92,-23 -13,2 -36,21 -30,25 7,5 65,36 68,49 2,12 -21,29 -13,37 8,9 27,-8 40,-8 12,0 48,17 48,17l134 77 36 -56z"/>
  <path class="fil42" d="M1747 2883c0,0 -26,-28 -68,26 -41,53 -76,133 -135,126 -58,-7 -153,-54 -153,-54 0,0 -42,28 -35,70 0,0 135,100 226,95 90,-4 188,-97 209,-163 21,-65 -44,-100 -44,-100z"/>
  <path class="fil42" d="M1467 3473c8,41 127,62 197,51 69,-11 144,-45 142,-126 0,0 11,-322 11,-386 0,-63 -40,-110 -40,-110 0,0 -39,-45 -162,-20 0,0 -100,22 -146,96 0,0 -31,81 -21,250 11,169 19,245 19,245z"/>
  <path class="fil17" d="M1711 2793c0,0 -11,62 0,90 2,14 -60,61 -115,49 -31,-7 -30,-23 -30,-23 0,0 27,-44 23,-86 -3,-42 85,-39 122,-30z"/>
  <path class="fil13" d="M1505 2669c0,80 65,145 145,145 80,0 145,-65 145,-145 0,-80 -65,-146 -145,-146 -80,0 -145,66 -145,146z"/>
  <path class="fil13" d="M1505 2678c0,0 -2,146 30,175 31,30 80,-27 158,-45 78,-20 -63,-172 -63,-172l-125 42z"/>
  <path class="fil13" d="M1325 3155c0,0 -204,-91 -231,-106 -27,-16 -48,-72 -58,-84 -10,-12 -57,-39 -55,-27 2,12 26,34 26,34 0,0 -17,29 -21,48 -3,19 23,56 36,66 14,11 46,14 46,14 0,0 166,111 194,113 27,2 66,-14 63,-58z"/>
  <path class="fil42" d="M1506 2971c0,0 -26,-28 -68,25 -41,54 -76,133 -135,126 -58,-7 -153,-54 -153,-54 0,0 -42,28 -35,70 0,0 135,100 226,96 91,-5 188,-98 209,-163 21,-66 -44,-100 -44,-100z"/>
  <path class="fil20" d="M1563 2546c0,0 -52,11 -68,91 7,34 54,7 73,52 18,46 29,59 29,59l12 -4c0,0 0,-36 15,-36 16,0 21,43 12,61 -9,18 -30,27 -30,27 0,0 23,39 34,43 12,5 53,-4 69,-11 16,-7 45,-39 68,-75 23,-36 43,-100 29,-143 -13,-43 -45,-55 -45,-55 0,0 -18,-25 -50,-36 -32,-12 -91,-16 -148,27z"/>
  <path class="fil20" d="M1551 2642c0,0 35,42 18,102 -18,59 7,59 31,136 25,77 -45,167 21,279 67,112 245,98 325,-14 80,-112 -45,-192 -49,-293 -3,-101 77,-161 -14,-231 -91,-70 -129,-146 -241,-115 -112,31 -139,87 -91,136z"/>
 </g>
</svg>
