<?xml version="1.0" encoding="UTF-8"?>
<!DOCTYPE svg PUBLIC "-//W3C//DTD SVG 1.1//EN" "http://www.w3.org/Graphics/SVG/1.1/DTD/svg11.dtd">
<!-- Creator: CorelDRAW X8 -->
<svg xmlns="http://www.w3.org/2000/svg" xml:space="preserve" width="59.2666mm" height="59.2666mm" version="1.1" style="shape-rendering:geometricPrecision; text-rendering:geometricPrecision; image-rendering:optimizeQuality; fill-rule:evenodd; clip-rule:evenodd"
viewBox="0 0 5927 5927"
 xmlns:xlink="http://www.w3.org/1999/xlink">
 <defs>
  <style type="text/css">
   <![CDATA[
    .fil0 {fill:#A9ABAE}
    .fil8 {fill:#00457E;fill-rule:nonzero}
    .fil3 {fill:#1D3B54;fill-rule:nonzero}
    .fil11 {fill:#A77860;fill-rule:nonzero}
    .fil5 {fill:#D6C5BE;fill-rule:nonzero}
    .fil2 {fill:#EB4747;fill-rule:nonzero}
    .fil4 {fill:#EDDAD3;fill-rule:nonzero}
    .fil6 {fill:#EEA886;fill-rule:nonzero}
    .fil10 {fill:#EEA987;fill-rule:nonzero}
    .fil7 {fill:#FAE6DE;fill-rule:nonzero}
    .fil1 {fill:#FCCCA2;fill-rule:nonzero}
    .fil9 {fill:white;fill-rule:nonzero}
   ]]>
  </style>
 </defs>
 <g id="Capa_x0020_1">
  <metadata id="CorelCorpID_0Corel-Layer"/>
  <circle class="fil0" cx="2930" cy="2964" r="2786"/>
  <path class="fil1" d="M3245 738c0,0 385,188 290,700 -95,512 -137,581 -31,781 107,200 232,1053 137,1215 -96,162 -1186,-711 -1337,-1443 -151,-732 96,-1057 183,-1179 87,-121 419,-247 758,-74z"/>
  <path class="fil2" d="M3352 2586c0,0 196,40 306,202 76,112 83,363 94,410 11,47 157,580 157,580l-408 273 -149 -1465z"/>
  <path class="fil3" d="M3709 5628c-465,177 -1261,174 -1676,-68 105,-292 84,-518 84,-518 0,0 1410,-14 1534,297 20,49 29,170 58,289z"/>
  <path class="fil4" d="M2990 2453c0,0 240,113 323,130 84,17 407,436 463,590 57,153 0,383 -116,652 -117,270 -7,360 -60,630 -54,269 -100,841 -90,990 10,150 -1347,179 -1657,-94 0,0 311,-467 351,-533 40,-67 7,-430 -30,-523 -36,-93 -280,-886 -280,-886 0,0 -200,-609 -19,-749 156,-122 583,-165 659,-192 77,-27 300,-38 456,-15z"/>
  <path class="fil5" d="M3067 2988l146 -171 -127 -449c0,0 -43,250 -19,620z"/>
  <path class="fil6" d="M3105 2177c0,0 -7,60 -15,143 -3,37 -7,78 -10,121 -10,121 -18,252 -13,319 0,0 -249,249 -533,-292 0,0 120,-223 30,-527 -90,-304 541,236 541,236z"/>
  <polygon class="fil6" points="3067,2760 3067,2988 2780,2773 "/>
  <polygon class="fil5" points="3067,2988 2948,2840 2547,2441 2417,2566 "/>
  <path class="fil2" d="M2606 5661c-32,154 -769,-115 -876,-183 148,-302 434,-973 284,-1477 -211,-712 -287,-996 -287,-996 0,0 72,-396 329,-452 225,-49 435,-74 435,-74 0,0 337,511 353,735 16,225 -125,1907 -238,2447z"/>
  <path class="fil2" d="M3633 4728c6,171 131,777 153,888 -132,54 -298,76 -437,102 66,-552 283,-2630 -181,-3186l187 55c0,0 332,272 443,654 0,0 61,215 -175,689 0,0 3,608 10,798z"/>
  <polygon class="fil7" points="3213,2817 3396,2868 3086,2368 "/>
  <polygon class="fil7" points="2948,2840 2780,3060 2436,2486 2547,2441 "/>
  <polygon class="fil8" points="3191,3729 3238,3691 3684,4255 3636,4292 "/>
  <path class="fil6" d="M3163 4229c0,0 43,0 71,-21 48,-36 65,-126 151,-119 85,6 124,274 103,324 -21,51 -140,76 -315,41 -175,-35 -10,-225 -10,-225z"/>
  <path class="fil6" d="M3355 4090c0,0 123,-41 264,-72 124,-27 273,-36 287,-14 16,24 -121,45 -242,79 -112,32 -86,44 -86,44 0,0 -7,-4 121,-16 137,-13 279,-13 293,15 7,13 2,22 -48,35 30,-2 34,6 35,18 6,62 -194,111 -274,131 62,-15 108,-19 86,22 -26,48 -312,105 -413,135 -110,33 -23,-377 -23,-377z"/>
  <path class="fil2" d="M2104 2562c-85,-27 -332,61 -374,315 -42,253 -59,535 -98,672 -39,136 -138,742 -55,792 84,50 243,96 465,96 229,0 1119,40 1119,40l56 -316c0,0 -338,-17 -513,-44 -156,-24 -372,-90 -626,-118 0,0 54,-375 93,-481 39,-106 312,-833 -67,-956z"/>
  <polygon class="fil6" points="3731,4185 3773,4287 3684,4223 "/>
  <polygon class="fil9" points="3241,4716 4137,4538 4802,3115 3846,3216 "/>
  <path class="fil6" d="M4249 4296c0,0 49,-45 93,-109 44,-64 187,-308 174,-323 -13,-16 -226,-21 -264,14 -39,35 38,48 38,48 0,0 -117,12 -108,45 8,33 78,24 78,24 0,0 -94,18 -79,47 14,28 59,28 59,28 0,0 -83,10 -73,42 10,31 142,61 124,87 -17,26 -42,97 -42,97z"/>
  <path class="fil10" d="M3190 795c0,0 558,175 255,1139 -303,964 -1066,-111 -986,-699 79,-587 731,-440 731,-440z"/>
  <path class="fil1" d="M3502 1357c0,0 -277,272 -742,307 0,0 -179,209 -192,291 0,0 -415,-706 95,-1130 509,-423 1026,358 839,532z"/>
  <path class="fil10" d="M2766 1683c-4,-70 -47,-230 -151,-185 -105,44 6,369 75,349 0,0 84,2 76,-164z"/>
  <path class="fil11" d="M3090 2320c-3,37 -7,78 -10,121l0 0c-323,-160 -373,-390 -374,-397 230,297 384,276 384,276z"/>
 </g>
</svg>
